#tb 0: 1/44100
#media_type 0: audio
#codec_id 0: pcm_s16le
#sample_rate 0: 44100
#channel_layout_name 0: stereo
0,          0,          0,     4096,    16384, 0xc171ea11
0,       4096,       4096,     4096,    16384, 0x0f67edef
0,       8192,       8192,     4096,    16384, 0xf25efbc9
0,      12288,      12288,     4096,    16384, 0xc6f3f3a9
0,      16384,      16384,     4096,    16384, 0x0258fcc9
0,      20480,      20480,     4096,    16384, 0x1312f5a3
0,      24576,      24576,     4096,    16384, 0xeec8e34f
0,      28672,      28672,     4096,    16384, 0xe54df16f
0,      32768,      32768,     4096,    16384, 0xb86eea4d
0,      36864,      36864,     4096,    16384, 0x0f67edef
0,      40960,      40960,     4096,    16384, 0xf05f0562
0,      45056,      45056,     4096,    16384, 0xe85ecc35
0,      49152,      49152,     4096,    16384, 0x2dbd00d6
0,      53248,      53248,     4096,    16384, 0x8fb1e5b5
0,      57344,      57344,     4096,    16384, 0x8aaf2386
0,      61440,      61440,     4096,    16384, 0x53b5ece7
0,      65536,      65536,     4096,    16384, 0x04d4db57
0,      69632,      69632,     4096,    16384, 0x49d6c17f
0,      73728,      73728,     4096,    16384, 0xda8dedd7
0,      77824,      77824,     4096,    16384, 0x96e5f16d
0,      81920,      81920,     4096,    16384, 0x57f39be9
0,      86016,      86016,     4096,    16384, 0x6cc98def
0,      90112,      90112,     4096,    16384, 0xd41f5810
0,      94208,      94208,     4096,    16384, 0x8c7d80d7
0,      98304,      98304,     4096,    16384, 0x262ace0f
0,     102400,     102400,     4096,    16384, 0xa447467c
0,     106496,     106496,     4096,    16384, 0x5b84b90b
0,     110592,     110592,     4096,    16384, 0x20af2526
0,     114688,     114688,     4096,    16384, 0x378797f2
0,     118784,     118784,     4096,    16384, 0x4001139e
0,     122880,     122880,     4096,    16384, 0x04fe019f
0,     126976,     126976,     4096,    16384, 0xab4a5da6
0,     131072,     131072,     4096,    16384, 0x2175acd4
0,     135168,     135168,     4096,    16384, 0x482de60f
0,     139264,     139264,     4096,    16384, 0x539f0b3a
0,     143360,     143360,     4096,    16384, 0x1989e001
0,     147456,     147456,     4096,    16384, 0xf76301e6
0,     151552,     151552,     4096,    16384, 0x5708f47a
0,     155648,     155648,     4096,    16384, 0x32cd027a
0,     159744,     159744,     4096,    16384, 0x5d6ff531
0,     163840,     163840,     4096,    16384, 0x9573edbb
0,     167936,     167936,     4096,    16384, 0x7748f81d
0,     172032,     172032,     4096,    16384, 0x1222fb5b
0,     176128,     176128,     4096,    16384, 0x49e51589
0,     180224,     180224,     4096,    16384, 0x65da0136
0,     184320,     184320,     4096,    16384, 0xc829962f
0,     188416,     188416,     4096,    16384, 0xe518f117
0,     192512,     192512,     4096,    16384, 0x7397e2e9
0,     196608,     196608,     4096,    16384, 0x0b97ddf0
0,     200704,     200704,     4096,    16384, 0x648ac0f1
0,     204800,     204800,     4096,    16384, 0x4547df1c
0,     208896,     208896,     4096,    16384, 0xdcc219c3
0,     212992,     212992,     4096,    16384, 0x65da0136
0,     217088,     217088,     4096,    16384, 0xc829962f
0,     221184,     221184,     4096,    16384, 0xe518f117
0,     225280,     225280,     4096,    16384, 0x7397e2e9
0,     229376,     229376,     4096,    16384, 0x0b97ddf0
0,     233472,     233472,     4096,    16384, 0x648ac0f1
0,     237568,     237568,     4096,    16384, 0x4547df1c
0,     241664,     241664,     4096,    16384, 0xdcc219c3
0,     245760,     245760,     4096,    16384, 0x65da0136
0,     249856,     249856,     4096,    16384, 0xc829962f
0,     253952,     253952,     4096,    16384, 0xe518f117
0,     258048,     258048,     4096,    16384, 0x7397e2e9
0,     262144,     262144,     2456,     9824, 0xc9c10f43
